<mxfile host="app.diagrams.net" modified="2024-03-22T13:08:16.707Z" agent="Mozilla/5.0 (Windows NT 10.0; Win64; x64; rv:124.0) Gecko/20100101 Firefox/124.0" version="24.0.7" etag="mmvEVZwUViXTYkM_Ds_5" type="github">
  <diagram name="Page-1" id="FaGUJbmuZ-HlBYXLn0BT">
    <mxGraphModel>
      <root>
        <mxCell id="0" />
        <mxCell id="1" parent="0" />
      </root>
    </mxGraphModel>
  </diagram>
</mxfile>
